<svg id="Layer_1" data-name="Layer 1" xmlns="http://www.w3.org/2000/svg" xmlns:xlink="http://www.w3.org/1999/xlink" width="128" height="128" viewBox="0 0 128 128">
  <defs>
    <linearGradient id="linear-gradient" x1="60.33" y1="28.39" x2="60.33" y2="105.05" gradientUnits="userSpaceOnUse">
      <stop offset="0" stop-color="#31aef6"/>
      <stop offset="0.64" stop-color="#0e89cf"/>
      <stop offset="1" stop-color="#0079bf"/>
    </linearGradient>
    <linearGradient id="linear-gradient-2" x1="86.75" y1="8.95" x2="86.75" y2="71.53" xlink:href="#linear-gradient"/>
  </defs>
  <g>
    <path d="M89,95.53H31.52V38H68.78l9.62-9.62H26.76A4.76,4.76,0,0,0,22,33.15v67.14a4.76,4.76,0,0,0,4.76,4.76H93.9a4.76,4.76,0,0,0,4.76-4.76V48.65L89,58.27Z" fill="url(#linear-gradient)"/>
    <path d="M113.34,9h-27a4.76,4.76,0,1,0,0,9.52h15.39L56.94,63.33a4.69,4.69,0,0,0,0,6.78,4.64,4.64,0,0,0,6.68,0l44.86-44.75V40.75a4.76,4.76,0,0,0,9.52,0v-27A4.61,4.61,0,0,0,113.34,9Z" fill="url(#linear-gradient-2)"/>
  </g>
</svg>
